HIERARCHY
ROOT Hips
{
  OFFSET 249.573 103.969 311.749
  CHANNELS 6 Xposition Yposition Zposition Zrotation Xrotation Yrotation
  JOINT RightUpLeg
  {
    OFFSET -8.9458 -8.66707 0.101652
    CHANNELS 3 Zrotation Xrotation Yrotation
    JOINT RightLeg
    {
      OFFSET 0 -44.4227 1.3727
      CHANNELS 3 Zrotation Xrotation Yrotation
      JOINT RightFoot
      {
        OFFSET 0.253549 -42.0924 -1.46059
        CHANNELS 3 Zrotation Xrotation Yrotation
        JOINT RightToes
        {
          OFFSET 0.04 -4.41509 8.4991
          CHANNELS 3 Zrotation Xrotation Yrotation
          End Site
          {
            OFFSET -0.08 -0.137448 9.77979
          }
        }
      }
    }
  }
  JOINT Spine
  {
    OFFSET 0 11.8905 0
    CHANNELS 3 Zrotation Xrotation Yrotation
    JOINT Spine1
    {
      OFFSET 0 25.6574 0.127663
      CHANNELS 3 Zrotation Xrotation Yrotation
      JOINT HEad
      {
        OFFSET 0 8.73416 0.011341
        CHANNELS 3 Zrotation Xrotation Yrotation
        End Site
        {
          OFFSET -0.29 12.7742 2.51395
        }
      }
      JOINT LeftShoulder1
      {
        OFFSET 8.99 -0.362252 -0.22
        CHANNELS 3 Zrotation Xrotation Yrotation
        JOINT LeftArm
        {
          OFFSET 10.2827 -0.00338 0.322123
          CHANNELS 3 Zrotation Xrotation Yrotation
          JOINT LeftForeArm
          {
            OFFSET 32.7669 0.099144 -1.42434
            CHANNELS 3 Zrotation Xrotation Yrotation
            JOINT LeftHand
            {
              OFFSET 27.5643 0.085362 1.02216
              CHANNELS 3 Zrotation Xrotation Yrotation
              End Site
              {
                OFFSET 16.7443 -0.6 1.50291
              }
            }
          }
        }
      }
      JOINT RightShoulder
      {
        OFFSET -8.99 -0.362252 -0.22
        CHANNELS 3 Zrotation Xrotation Yrotation
        JOINT RightArm
        {
          OFFSET -10.2827 -0.00338 0.322123
          CHANNELS 3 Zrotation Xrotation Yrotation
          JOINT RightForeArm
          {
            OFFSET -32.8971 0.099144 -1.42434
            CHANNELS 3 Zrotation Xrotation Yrotation
            JOINT RightHand
            {
              OFFSET -27.4921 0.085362 1.02216
              CHANNELS 3 Zrotation Xrotation Yrotation
              End Site
              {
                OFFSET -16.6312 -0.6 1.50291
              }
            }
          }
        }
      }
    }
  }
  JOINT LeftUpLeg
  {
    OFFSET 8.9458 -8.66707 0.101652
    CHANNELS 3 Zrotation Xrotation Yrotation
    JOINT LeftLeg
    {
      OFFSET 0 -44.4227 1.3727
      CHANNELS 3 Zrotation Xrotation Yrotation
      JOINT LeftFoot
      {
        OFFSET -0.253549 -42.0924 -1.46059
        CHANNELS 3 Zrotation Xrotation Yrotation
        JOINT LeftToes
        {
          OFFSET -0.04 -4.41509 8.4991
          CHANNELS 3 Zrotation Xrotation Yrotation
          End Site
          {
            OFFSET 0.08 -0.047448 9.77979
          }
        }
      }
    }
  }
}
MOTION
Frames:	7
Frame Time:	0.0166667
0	103.871	0	2.2686	2.57146	160.384	3.04976	1.59682	3.06704	-0.920226	11.4405	11.1157	2.42835	-8.58858	-3.63175	0.0462048	0.000533964	0.662642	-0.143681	-3.10381	-1.38826	-0.363552	-6.20042	-2.79071	0.522326	11.0259	10.6855	-7.95E-16	0.00E+00	0.00E+00	-5.19705	-11.6843	-7.47634	0.0548131	9.34611	-7.95861	5.58526	11.704	3.69933	-7.95E-16	0.00E+00	0.00E+00	9.69359	-16.4606	1.20506	-1.87505	16.1273	-3.39317	-0.33187	13.9371	-6.73658	-3.55977	3.3728	-1.97689	2.35614	11.5009	1.2643	-6.62088	-19.8099	-5.49708	1.39E-14	2.94E-14	6.36E-15
-0.042	103.86	0.001	2.29403	2.54308	160.353	3.07979	1.56869	3.06742	-0.916783	11.4309	11.1305	2.43537	-8.60863	-3.87075	0.0462048	0.000533964	0.662642	-0.148602	-3.10416	-1.39374	-0.373719	-6.20099	-2.80195	0.626743	11.1156	10.7667	2.65E-31	-1.59E-15	9.54E-15	-4.96371	-11.3607	-7.68488	-0.0395943	9.11358	-8.09047	5.65801	11.64	3.61426	2.65E-31	-1.59E-15	9.54E-15	9.57888	-16.45	1.15615	-1.86124	16.1469	-3.48306	-0.31045	13.9441	-6.7789	-3.5233	3.35633	-1.93438	2.33768	11.489	1.28547	-6.59685	-19.8316	-5.3781	1.35E-14	3.02E-14	0.00E+00
-0.076	103.852	0.004	2.33228	2.50889	160.325	3.11361	1.54142	3.07794	-0.91612	11.4199	11.1289	2.44904	-8.62154	-4.1144	0.0462048	0.000533964	0.662642	-0.150759	-3.10679	-1.39872	-0.376511	-6.20619	-2.81202	0.709858	11.2035	10.8543	7.95E-16	3.18E-15	0.00E+00	-4.64839	-11.1511	-7.85444	-0.187361	8.67583	-8.24118	5.75456	11.6045	3.48832	7.95E-16	3.18E-15	0.00E+00	9.47044	-16.4519	1.10721	-1.86959	16.1718	-3.52753	-0.328944	13.94	-6.80376	-3.46531	3.345	-1.89397	2.31566	11.4723	1.28626	-6.62381	-19.8172	-5.58073	1.59E-14	3.26E-14	6.36E-15
-0.074	103.845	0.021	2.37148	2.47595	160.303	3.13772	1.51649	3.0888	-0.916484	11.4078	11.1217	2.46814	-8.57598	-3.81062	0.0462048	0.000533964	0.662642	-0.152592	-3.11155	-1.40481	-0.376095	-6.2157	-2.82424	0.765027	11.3012	10.9441	7.95E-16	-1.59E-15	6.36E-15	-4.33737	-11.0122	-8.01622	-0.334399	8.21684	-8.351	5.89046	11.569	3.36562	7.95E-16	-1.59E-15	6.36E-15	9.34725	-16.4681	1.05603	-1.88327	16.17	-3.51502	-0.378903	13.9331	-6.80164	-3.40381	3.34087	-1.85427	2.29665	11.4502	1.26962	-6.58576	-19.8794	-5.31281	1.71E-14	2.94E-14	6.36E-15
-0.102	103.84	0.021	2.40504	2.44502	160.287	3.20015	1.49384	3.09877	-0.912983	11.3991	11.1049	2.46507	-8.58167	-3.91583	0.0462048	0.000533964	0.662642	-0.15421	-3.11629	-1.41445	-0.375379	-6.22516	-2.84354	0.788639	11.3968	11.0437	2.65E-31	-4.77E-15	3.18E-15	-4.07104	-10.9166	-8.1899	-0.467125	7.88529	-8.38876	6.03137	11.5438	3.27452	2.65E-31	-4.77E-15	3.18E-15	9.21941	-16.4876	1.00351	-1.92616	16.1429	-3.4384	-0.423172	13.9273	-6.77409	-3.35164	3.34671	-1.7805	2.27723	11.4143	1.23194	-6.62631	-19.839	-5.67868	1.15E-14	3.18E-14	0.00E+00
-0.111	103.834	0.028	2.43449	2.42397	160.266	3.21603	1.48019	3.12534	-0.904004	11.3917	11.0933	2.47799	-8.58415	-3.97913	0.0462048	0.000533964	0.662642	-0.15553	-3.12072	-1.42562	-0.374705	-6.23399	-2.86594	0.80054	11.4811	11.1357	-7.95E-16	1.59E-15	0.00E+00	-3.87517	-10.8321	-8.35819	-0.566733	7.67776	-8.36687	6.16446	11.5345	3.22124	-7.95E-16	1.59E-15	0.00E+00	9.06677	-16.4683	0.967178	-1.96486	16.0938	-3.33781	-0.482871	13.9254	-6.73319	-3.31668	3.36015	-1.71508	2.263	11.3821	1.23263	-6.59947	-19.8633	-5.59068	1.35E-14	3.18E-14	3.18E-15
-0.138	103.829	0.029	2.46182	2.41464	160.227	3.24108	1.47225	3.16821	-0.896162	11.3891	11.0769	2.48015	-8.58062	-4.04244	0.0462048	0.000533964	0.662642	-0.156355	-3.12338	-1.43486	-0.37398	-6.2393	-2.88444	0.829712	11.544	11.2147	7.95E-16	3.18E-15	3.18E-15	-3.72763	-10.7564	-8.50237	-0.62858	7.56825	-8.30333	6.25576	11.5194	3.20552	7.95E-16	3.18E-15	3.18E-15	8.88466	-16.3918	0.951813	-1.9748	16.0199	-3.24436	-0.565825	13.9325	-6.68679	-3.29258	3.38424	-1.65325	2.24184	11.3473	1.26666	-6.59181	-19.853	-5.68477	1.23E-14	3.18E-14	3.18E-15
